<svg xmlns="http://www.w3.org/2000/svg" width="199.52" height="30.88" viewBox="0 0 199.52 30.88"><g transform="translate(23.21 -3.01)"><path d="M102.71,21.89c0,5.28-2.4,5.28-3.68,5.28-1.12,0-3.68,0-3.68-5.28V7.17H89.27V22.85c0,6.08,4,10.24,9.76,10.24s9.76-4.16,9.76-10.24V7.17h-6.08V21.89Z" fill="#111"/><path d="M162.71,6.53a13.6,13.6,0,1,0,0,27.2,13.389,13.389,0,0,0,13.6-13.6A13.589,13.589,0,0,0,162.71,6.53Zm0,20.96a7.445,7.445,0,0,1-7.36-7.36,7.36,7.36,0,0,1,14.72,0A7.34,7.34,0,0,1,162.71,27.49Z" fill="#111"/><path d="M-9.61,3.01l-13.6,29.92h6.88l2.56-5.76h8.32l2.56,5.76H3.99Zm-2.56,19.04,2.56-6.24,2.56,6.24Z" fill="#111"/><path d="M19.99,7.33H10.07V32.45h6.24v-7.2h3.36c6.24,0,10.08-3.52,10.08-8.96h0C29.75,10.69,26.07,7.33,19.99,7.33Zm3.36,9.12c0,2.08-1.44,3.36-3.84,3.36h-3.2V12.93h3.2c2.56,0,3.84,1.28,3.84,3.52Z" fill="#111"/><path d="M45.91,7.33H35.99V32.45h6.24v-7.2h3.36c6.24,0,10.08-3.52,10.08-8.96h0C55.51,10.69,51.83,7.33,45.91,7.33Zm3.36,9.12c0,2.08-1.44,3.36-3.84,3.36h-3.2V12.93h3.2c2.4,0,3.84,1.28,3.84,3.52Z" fill="#111"/><path d="M74.07,15.33c-4.96-1.28-5.92-1.92-5.92-3.52v-.16c0-1.44,1.28-2.24,3.52-2.24s4.64.96,7.36,2.72l.16.16,3.52-5.12-.16-.16A17.069,17.069,0,0,0,71.83,3.33c-6.08,0-10.24,3.68-10.24,8.8v.16c0,6.08,4.16,7.52,9.6,8.96,4.8,1.28,5.6,2.08,5.6,3.36v.16c0,1.6-1.44,2.4-3.84,2.4a12.92,12.92,0,0,1-8.32-3.36l-.16-.16-4,4.8.16.16a18.144,18.144,0,0,0,12.32,4.64c6.56,0,10.72-3.52,10.72-9.12h0C83.35,18.85,79.67,16.77,74.07,15.33Z" fill="#111"/><path d="M129.59,33.89l-7.52-12.8-2.24,11.84h-5.44l5.6-26.4,9.92,16.64,9.44-16.64,5.6,26.4h-5.76l-2.24-11.68Z" fill="#111"/></g></svg>