<svg xmlns="http://www.w3.org/2000/svg" width="96.313" height="96.476" viewBox="0 0 96.313 96.476">
  <g id="dots" transform="translate(-315.999 849.371)">
    <circle id="Ellipse_6" data-name="Ellipse 6" cx="1.5" cy="1.5" r="1.5" transform="translate(409.312 -849.371)" fill="#2f2d79"/>
    <circle id="Ellipse_7" data-name="Ellipse 7" cx="1.5" cy="1.5" r="1.5" transform="translate(385.984 -849.371)" fill="#2f2d79"/>
    <circle id="Ellipse_8" data-name="Ellipse 8" cx="1.5" cy="1.5" r="1.5" transform="translate(362.656 -849.371)" fill="#2f2d79"/>
    <circle id="Ellipse_9" data-name="Ellipse 9" cx="1.5" cy="1.5" r="1.5" transform="translate(339.327 -849.371)" fill="#2f2d79"/>
    <circle id="Ellipse_10" data-name="Ellipse 10" cx="1.5" cy="1.5" r="1.5" transform="translate(315.999 -849.371)" fill="#2f2d79"/>
    <circle id="Ellipse_11" data-name="Ellipse 11" cx="1.5" cy="1.5" r="1.5" transform="translate(409.312 -826.002)" fill="#2f2d79"/>
    <circle id="Ellipse_12" data-name="Ellipse 12" cx="1.5" cy="1.5" r="1.5" transform="translate(385.984 -826.002)" fill="#2f2d79"/>
    <circle id="Ellipse_13" data-name="Ellipse 13" cx="1.5" cy="1.5" r="1.5" transform="translate(362.656 -826.002)" fill="#2f2d79"/>
    <circle id="Ellipse_14" data-name="Ellipse 14" cx="1.5" cy="1.5" r="1.5" transform="translate(339.327 -826.002)" fill="#2f2d79"/>
    <circle id="Ellipse_15" data-name="Ellipse 15" cx="1.5" cy="1.5" r="1.5" transform="translate(315.999 -826.002)" fill="#2f2d79"/>
    <circle id="Ellipse_16" data-name="Ellipse 16" cx="1.5" cy="1.5" r="1.5" transform="translate(409.312 -802.633)" fill="#2f2d79"/>
    <circle id="Ellipse_17" data-name="Ellipse 17" cx="1.5" cy="1.5" r="1.5" transform="translate(385.984 -802.633)" fill="#2f2d79"/>
    <circle id="Ellipse_18" data-name="Ellipse 18" cx="1.5" cy="1.5" r="1.5" transform="translate(362.656 -802.633)" fill="#2f2d79"/>
    <circle id="Ellipse_19" data-name="Ellipse 19" cx="1.5" cy="1.5" r="1.5" transform="translate(339.327 -802.633)" fill="#2f2d79"/>
    <circle id="Ellipse_20" data-name="Ellipse 20" cx="1.5" cy="1.5" r="1.5" transform="translate(315.999 -802.633)" fill="#2f2d79"/>
    <circle id="Ellipse_21" data-name="Ellipse 21" cx="1.5" cy="1.5" r="1.5" transform="translate(409.312 -779.264)" fill="#2f2d79"/>
    <circle id="Ellipse_22" data-name="Ellipse 22" cx="1.5" cy="1.5" r="1.5" transform="translate(385.984 -779.264)" fill="#2f2d79"/>
    <circle id="Ellipse_23" data-name="Ellipse 23" cx="1.5" cy="1.5" r="1.5" transform="translate(362.656 -779.264)" fill="#2f2d79"/>
    <circle id="Ellipse_24" data-name="Ellipse 24" cx="1.5" cy="1.5" r="1.5" transform="translate(339.327 -779.264)" fill="#2f2d79"/>
    <circle id="Ellipse_25" data-name="Ellipse 25" cx="1.5" cy="1.5" r="1.5" transform="translate(315.999 -779.264)" fill="#2f2d79"/>
    <circle id="Ellipse_26" data-name="Ellipse 26" cx="1.5" cy="1.5" r="1.5" transform="translate(409.312 -755.895)" fill="#2f2d79"/>
    <circle id="Ellipse_27" data-name="Ellipse 27" cx="1.5" cy="1.5" r="1.5" transform="translate(385.984 -755.895)" fill="#2f2d79"/>
    <circle id="Ellipse_28" data-name="Ellipse 28" cx="1.5" cy="1.5" r="1.5" transform="translate(362.656 -755.895)" fill="#2f2d79"/>
    <circle id="Ellipse_29" data-name="Ellipse 29" cx="1.5" cy="1.5" r="1.5" transform="translate(339.327 -755.895)" fill="#2f2d79"/>
    <circle id="Ellipse_30" data-name="Ellipse 30" cx="1.5" cy="1.5" r="1.5" transform="translate(315.999 -755.895)" fill="#2f2d79"/>
  </g>
</svg>
