<svg xmlns="http://www.w3.org/2000/svg" xmlns:xlink="http://www.w3.org/1999/xlink" width="176.961" height="55" viewBox="0 0 176.961 55"><defs><linearGradient id="a" x1="-9.508" y1="23.285" x2="-10.395" y2="13.259" gradientUnits="objectBoundingBox"><stop offset="0" stop-color="#63157b"/><stop offset="1" stop-color="#ff0e58"/></linearGradient><linearGradient id="b" x1="-5.571" y1="13.727" x2="-3.595" y2="23.096" gradientUnits="objectBoundingBox"><stop offset="0" stop-color="#63157b"/><stop offset="0.567" stop-color="#ff0e58"/><stop offset="1" stop-color="#ffbc07"/></linearGradient><linearGradient id="c" x1="-36.735" y1="20.237" x2="-21.075" y2="32.071" xlink:href="#b"/><linearGradient id="d" x1="-6.934" y1="15.088" x2="-4.255" y2="24.457" xlink:href="#b"/><linearGradient id="e" x1="-7.965" y1="22.298" x2="-8.729" y2="12.695" xlink:href="#a"/><linearGradient id="f" x1="-8.628" y1="14.555" x2="-8.253" y2="18.578" xlink:href="#a"/><linearGradient id="g" x1="-8.619" y1="13.981" x2="-5.628" y2="23.35" xlink:href="#b"/><linearGradient id="h" x1="-7.626" y1="14.532" x2="-7.294" y2="18.555" xlink:href="#a"/><linearGradient id="i" x1="-15.293" y1="9.976" x2="-16.171" y2="12.88" gradientUnits="objectBoundingBox"><stop offset="0" stop-color="#00f3c0"/><stop offset="1" stop-color="#c6ef25"/></linearGradient><linearGradient id="j" x1="0.13" y1="0.208" x2="0.601" y2="0.797" gradientUnits="objectBoundingBox"><stop offset="0" stop-color="#ffbc07"/><stop offset="1" stop-color="#ff0e58"/></linearGradient><linearGradient id="k" x1="-7.866" y1="17.435" x2="-6.43" y2="19.066" gradientUnits="objectBoundingBox"><stop offset="0" stop-color="#fdd503"/><stop offset="1" stop-color="#ff0e58"/></linearGradient><linearGradient id="l" x1="-7.272" y1="35.868" x2="-4.796" y2="38.276" xlink:href="#k"/><linearGradient id="m" x1="-43.025" y1="49.847" x2="-30.829" y2="86.69" xlink:href="#b"/><linearGradient id="n" x1="-36.233" y1="68.817" x2="-34.085" y2="76.912" xlink:href="#k"/><linearGradient id="o" x1="-18.46" y1="33.273" x2="-15.255" y2="36.438" xlink:href="#k"/><linearGradient id="p" x1="-18.264" y1="31.187" x2="-17.151" y2="34.795" xlink:href="#k"/><linearGradient id="q" x1="-42.94" y1="54.954" x2="-30.744" y2="95.63" xlink:href="#b"/><linearGradient id="r" x1="-36.578" y1="81.552" x2="-30.391" y2="89.391" xlink:href="#k"/><linearGradient id="s" x1="-36.131" y1="75.901" x2="-33.983" y2="84.838" xlink:href="#k"/><linearGradient id="t" x1="0.593" y1="0.028" x2="0.48" y2="0.788" gradientUnits="objectBoundingBox"><stop offset="0" stop-color="#00f3c0"/><stop offset="1" stop-color="#26acff"/></linearGradient><linearGradient id="u" x1="1.019" y1="0.061" x2="0.065" y2="0.766" xlink:href="#t"/><linearGradient id="v" x1="0.667" y1="0.046" x2="0.401" y2="0.772" xlink:href="#t"/><linearGradient id="w" x1="-86.294" y1="36.298" x2="-102.073" y2="43.846" xlink:href="#t"/></defs><g transform="translate(234.27 2191.197)"><path d="M-154.227-2187.2l.028,3.233h-9.1l-.027,12.91h9.094v3.207h-12.964v-19.35Zm-2.294,11.637h-4.312l-1.8-3.594h6.109Z" fill="#053262"/><path d="M-148.753-2187.2v19.35h-3.677l.028-19.35Z" fill="#053262"/><path d="M-140.185-2181.9a6.847,6.847,0,0,1,2.765.567,7.316,7.316,0,0,1,2.267,1.535,7.316,7.316,0,0,1,1.534,2.266,6.913,6.913,0,0,1,.567,2.793,7.04,7.04,0,0,1-.167,1.548l-.027.055h-7.021l-1.769-2.82h5.252a4.122,4.122,0,0,0-1.286-1.908,3.208,3.208,0,0,0-2.115-.746,3.353,3.353,0,0,0-1.409.3,3.657,3.657,0,0,0-1.147.812,3.725,3.725,0,0,0-.761,1.212,4.146,4.146,0,0,0-.276,1.528,3.766,3.766,0,0,0,.249,1.309,3.989,3.989,0,0,0,.719,1.226,4.124,4.124,0,0,0,1.133.922,2.987,2.987,0,0,0,1.492.372,4.286,4.286,0,0,0,1.369-.207,2.549,2.549,0,0,0,1.175-.927l.028-.027.055.027,3.207,1.413-.055.056a6.929,6.929,0,0,1-2.53,2.175,7.086,7.086,0,0,1-3.249.78,7.145,7.145,0,0,1-2.805-.553,7.046,7.046,0,0,1-2.281-1.521,7.3,7.3,0,0,1-1.534-2.266,6.835,6.835,0,0,1-.566-2.764,6.912,6.912,0,0,1,.566-2.793,7.316,7.316,0,0,1,1.534-2.266,7.264,7.264,0,0,1,2.281-1.535A7.014,7.014,0,0,1-140.185-2181.9Z" fill="#053262"/><path d="M-131.67-2181.673h3.677v13.822h-3.677Zm14.983-.222a4.381,4.381,0,0,1,2.2.512,4.245,4.245,0,0,1,1.452,1.341,5.76,5.76,0,0,1,.8,1.866,8.9,8.9,0,0,1,.248,2.087v8.238h-3.675l.027-8.26a2.1,2.1,0,0,0-.166-.831,2.3,2.3,0,0,0-.457-.693,2.181,2.181,0,0,0-.69-.486,2.059,2.059,0,0,0-.844-.18,2.086,2.086,0,0,0-1.548.651,2.132,2.132,0,0,0-.635,1.539v8.26h-3.677v-8.26a2.1,2.1,0,0,0-.165-.831,2.2,2.2,0,0,0-.471-.693,2.1,2.1,0,0,0-.705-.471,2.293,2.293,0,0,0-.9-.167,1.786,1.786,0,0,1-.25-.411c-.148-.275-.313-.576-.5-.906q-.3-.574-.746-1.316l.027-.055a4.155,4.155,0,0,1,2.626-.934,4.252,4.252,0,0,1,2.515.687,4.711,4.711,0,0,1,1.493,1.7,2.49,2.49,0,0,1,.222-.329,5.41,5.41,0,0,1,1.756-1.536A4.329,4.329,0,0,1-116.687-2181.9Z" fill="#053262"/><path d="M-103.419-2181.9a6.847,6.847,0,0,1,2.765.567,7.316,7.316,0,0,1,2.267,1.535,7.316,7.316,0,0,1,1.534,2.266,6.913,6.913,0,0,1,.567,2.793,7.04,7.04,0,0,1-.167,1.548l-.027.055H-103.5l-1.769-2.82h5.252a4.13,4.13,0,0,0-1.286-1.908,3.208,3.208,0,0,0-2.115-.746,3.353,3.353,0,0,0-1.409.3,3.657,3.657,0,0,0-1.147.812,3.725,3.725,0,0,0-.761,1.212,4.147,4.147,0,0,0-.277,1.528,3.768,3.768,0,0,0,.25,1.309,3.988,3.988,0,0,0,.719,1.226,4.124,4.124,0,0,0,1.133.922,2.987,2.987,0,0,0,1.492.372,4.286,4.286,0,0,0,1.369-.207,2.549,2.549,0,0,0,1.175-.927l.028-.027.055.027,3.207,1.413-.056.056a6.918,6.918,0,0,1-2.529,2.175,7.089,7.089,0,0,1-3.249.78,7.145,7.145,0,0,1-2.805-.553,7.046,7.046,0,0,1-2.281-1.521,7.285,7.285,0,0,1-1.534-2.266,6.835,6.835,0,0,1-.566-2.764,6.912,6.912,0,0,1,.566-2.793,7.3,7.3,0,0,1,1.534-2.266,7.264,7.264,0,0,1,2.281-1.535A7.014,7.014,0,0,1-103.419-2181.9Z" fill="#053262"/><path d="M-94.9-2181.673h3.76v13.822H-94.9Zm12.771,1.6a5.307,5.307,0,0,1,1,2.156,14.4,14.4,0,0,1,.3,3.207v6.856h-3.759v-6.874q0-.775-.041-1.483a3.407,3.407,0,0,0-.291-1.246,1.823,1.823,0,0,0-.8-.846,3.333,3.333,0,0,0-1.576-.3,3.959,3.959,0,0,0-1.8.416v.027l-.027-.027-1.355-2.39.028-.027a5.183,5.183,0,0,1,3.594-1.289Q-83.544-2181.9-82.134-2180.07Z" fill="#053262"/><path d="M-73.923-2172.578a1.445,1.445,0,0,0,.456,1.078,1.513,1.513,0,0,0,1.092.442h2.682v3.207h-2.682a5.189,5.189,0,0,1-2.031-.4,5.13,5.13,0,0,1-1.659-1.1,5.341,5.341,0,0,1-1.12-1.646,4.945,4.945,0,0,1-.415-2.018v-4.146h-1.989v-3.068H-77.6v-5h3.677Zm4.23-7.657v3.068h-2.046l-1.715-3.068Z" fill="#053262"/><path d="M-61.511-2176.061q.912.3,1.672.622a5.714,5.714,0,0,1,1.326.76,3.176,3.176,0,0,1,.886,1.064,3.227,3.227,0,0,1,.318,1.479v.027a4.086,4.086,0,0,1-1.4,3.29,5.853,5.853,0,0,1-3.911,1.189,9.17,9.17,0,0,1-3.1-.543,10.653,10.653,0,0,1-2.847-1.548l-.027-.028.027-.028,1.88-2.967.028.028a5.651,5.651,0,0,0,1.88,1.341,5.572,5.572,0,0,0,2.239.455q1.631,0,1.631-1.048a.8.8,0,0,0-.525-.744,9.607,9.607,0,0,0-1.244-.469,1.029,1.029,0,0,0-.263-.068.991.991,0,0,1-.262-.07c-.554-.146-1.106-.307-1.66-.483a5.572,5.572,0,0,1-1.492-.716,3.759,3.759,0,0,1-1.092-1.159,3.416,3.416,0,0,1-.429-1.8v-.055a4.252,4.252,0,0,1,.36-1.765,3.978,3.978,0,0,1,1.022-1.379,4.7,4.7,0,0,1,1.6-.9,6.435,6.435,0,0,1,2.073-.318,9.389,9.389,0,0,1,2.682.4,9.259,9.259,0,0,1,2.515,1.174v.055L-59.3-2177.2l-.028-.027a4.593,4.593,0,0,0-1.575-1.009,5.346,5.346,0,0,0-1.991-.374,3.714,3.714,0,0,0-.442.029,1.269,1.269,0,0,0-.457.137,1.078,1.078,0,0,0-.345.29.825.825,0,0,0-.138.512.622.622,0,0,0,.221.457,2.611,2.611,0,0,0,.567.386,7.535,7.535,0,0,0,.774.346q.429.165.843.3a.671.671,0,0,1,.18.029C-61.627-2176.1-61.566-2176.079-61.511-2176.061Z" fill="#053262"/><path d="M-151.711-2159.558l-11.445,14.844v4.506h-4.035v-19.35h4.035v8.487l6.5-8.487Zm-8.625,14.541,1.576-4.341,7.049,9.15h-4.948Z" fill="#053262"/><path d="M-150.191-2159.558h3.677v3.234h-3.677Zm0,19.35v-13.821h3.677v13.821Z" fill="#053262"/><path d="M-139.465-2144.934a1.441,1.441,0,0,0,.456,1.077,1.513,1.513,0,0,0,1.092.442h2.682v3.207h-2.682a5.206,5.206,0,0,1-2.031-.4,5.149,5.149,0,0,1-1.659-1.106,5.336,5.336,0,0,1-1.12-1.645,4.952,4.952,0,0,1-.415-2.018v-4.146h-1.989v-3.069h1.989v-5h3.677Zm4.23-7.658v3.069h-2.046l-1.715-3.069Z" fill="#053262"/><path d="M-190.491-2171.074c.163-.428.307-.852.443-1.275C-190.186-2171.926-190.328-2171.5-190.491-2171.074Z" fill="#fff"/><path d="M-189.745-2173.36c-.041.146-.08.292-.125.439C-189.826-2173.068-189.786-2173.214-189.745-2173.36Z" fill="#fff"/><path d="M-179.245-2179.565a92.725,92.725,0,0,1-11.245,8.491,88.319,88.319,0,0,0,8.148-20.06l-.008,0a86.139,86.139,0,0,1-5.857,15.685c-1.319,2.723-2.284,4.377-2.284,4.377a39.981,39.981,0,0,1-13.277,5.669,9,9,0,0,0,1.944,7.2l4.13,4.994a47.522,47.522,0,0,0,15.742.2l-6.929-8.324a4.09,4.09,0,0,1,.016-5.253l12.9-15.309a2.556,2.556,0,0,0,.584-1.918A50.925,50.925,0,0,1-179.245-2179.565Z" fill="#053262"/><path d="M-202.846-2178.492a36.86,36.86,0,0,0,1.371-5.558v-3.692a2.062,2.062,0,0,0-2.062-2.062h-28.671a2.062,2.062,0,0,0-2.062,2.062v.321a55.418,55.418,0,0,0,3.629,9.057h27.1A2.035,2.035,0,0,0-202.846-2178.492Z" fill="#053262"/><path d="M-212.792-2167.363a2.062,2.062,0,0,0-2.062-2.062h-10a46.018,46.018,0,0,0,11.8,10.367,2.046,2.046,0,0,0,.263-.989Z" fill="#053262"/><path d="M-233.519-2148.563a2.049,2.049,0,0,0-.751,1.58v7.316a2.062,2.062,0,0,0,2.062,2.062h12.467a44.351,44.351,0,0,1-10.32-7.177A36.128,36.128,0,0,1-233.519-2148.563Z" fill="url(#a)"/><path d="M-228.1-2146.847a45.9,45.9,0,0,0,14.93,9.242h9.638a2.062,2.062,0,0,0,2.062-2.062v-7.316a2.062,2.062,0,0,0-2.062-2.062h-26.7C-229.557-2148.286-228.853-2147.547-228.1-2146.847Z" fill="url(#b)"/><path d="M-234.27-2180.426a2.062,2.062,0,0,0,2.062,2.062h1.567a55.418,55.418,0,0,1-3.629-9.057Z" fill="url(#c)"/><path d="M-224.858-2169.425h-7.35a2.062,2.062,0,0,0-2.062,2.062v7.316a2.062,2.062,0,0,0,2.062,2.062h17.354a2.055,2.055,0,0,0,1.8-1.073A46.018,46.018,0,0,1-224.858-2169.425Z" fill="url(#d)"/><path d="M-232.174-2149.045h-.034a2.04,2.04,0,0,0-1.311.482,36.128,36.128,0,0,0,3.458,3.781,44.351,44.351,0,0,0,10.32,7.177h3.078A42.715,42.715,0,0,1-232.174-2149.045Z" fill="url(#e)"/><path d="M-232.174-2149.045h-.034a2.04,2.04,0,0,0-1.311.482,36.128,36.128,0,0,0,3.458,3.781,44.351,44.351,0,0,0,10.32,7.177h3.078A42.715,42.715,0,0,1-232.174-2149.045Z" fill="url(#f)"/><path d="M-228.1-2146.847c-.748-.7-1.452-1.439-2.131-2.2h-1.938a42.715,42.715,0,0,0,15.511,11.44h3.488A45.9,45.9,0,0,1-228.1-2146.847Z" fill="url(#g)"/><path d="M-228.1-2146.847c-.748-.7-1.452-1.439-2.131-2.2h-1.938a42.715,42.715,0,0,0,15.511,11.44h3.488A45.9,45.9,0,0,1-228.1-2146.847Z" fill="url(#h)"/><path d="M-184.836-2190.281l-4.4,5.341a24.351,24.351,0,0,1-.5,11.58c-.041.146-.081.292-.125.439q-.086.285-.178.572c-.136.423-.28.847-.443,1.275,0,0,.965-1.654,2.284-4.377a86.139,86.139,0,0,0,5.857-15.685,2.562,2.562,0,0,0-.612-.06A2.572,2.572,0,0,0-184.836-2190.281Z" fill="url(#i)"/><path d="M-181.027-2190.419a2.566,2.566,0,0,0-1.315-.715,88.319,88.319,0,0,1-8.148,20.06,92.725,92.725,0,0,0,11.245-8.491,50.925,50.925,0,0,0,3.868-4.246,2.555,2.555,0,0,0-.708-1.53Z" fill="url(#j)"/><path d="M-195.005-2149.959l5.756,6.962c.593.424,1.188.845,1.792,1.255a83.031,83.031,0,0,0,7.2,4.451l4.571-4.5a2.586,2.586,0,0,0,.173-3.476l-1.464-1.758A44.668,44.668,0,0,1-195.005-2149.959Z" fill="url(#k)"/><path d="M-197.694-2153.212l2.689,3.253a44.668,44.668,0,0,0,18.032,2.934l-4.979-5.982A47.522,47.522,0,0,1-197.694-2153.212Z" fill="url(#l)"/><path d="M-182.523-2136.2l.057,0a2.706,2.706,0,0,0,1.1-.274c-1.62-.82-3.176-1.7-4.66-2.635l1.666,2.016A2.578,2.578,0,0,0-182.523-2136.2Z" fill="url(#m)"/><path d="M-182.523-2136.2l.057,0a2.706,2.706,0,0,0,1.1-.274c-1.62-.82-3.176-1.7-4.66-2.635l1.666,2.016A2.578,2.578,0,0,0-182.523-2136.2Z" fill="url(#n)"/><path d="M-189.249-2143l3.218,3.891c1.484.931,3.04,1.815,4.66,2.635a3.079,3.079,0,0,0,.853-.559l.265-.261a83.031,83.031,0,0,1-7.2-4.451C-188.061-2142.152-188.656-2142.573-189.249-2143Z" fill="url(#o)"/><path d="M-189.249-2143l3.218,3.891c1.484.931,3.04,1.815,4.66,2.635a3.079,3.079,0,0,0,.853-.559l.265-.261a83.031,83.031,0,0,1-7.2-4.451C-188.061-2142.152-188.656-2142.573-189.249-2143Z" fill="url(#p)"/><path d="M-181.371-2136.471h0c-1.62-.82-3.176-1.7-4.66-2.635h0C-184.547-2138.175-182.991-2137.291-181.371-2136.471Z" fill="url(#q)"/><path d="M-181.371-2136.471h0c-1.62-.82-3.176-1.7-4.66-2.635h0C-184.547-2138.175-182.991-2137.291-181.371-2136.471Z" fill="url(#r)"/><path d="M-181.371-2136.471h0c-1.62-.82-3.176-1.7-4.66-2.635h0C-184.547-2138.175-182.991-2137.291-181.371-2136.471Z" fill="url(#s)"/><path d="M-189.87-2172.921c.045-.147.084-.293.125-.439a25.759,25.759,0,0,0,.9-5.457,24.086,24.086,0,0,0-.432-6.085l-12.559,15.229a8.979,8.979,0,0,0-1.937,4.268,39.981,39.981,0,0,0,13.277-5.669c.163-.428.3-.852.443-1.275C-189.987-2172.54-189.926-2172.731-189.87-2172.921Z" fill="url(#t)"/><path d="M-188.84-2178.817a25.759,25.759,0,0,1-.9,5.457,24.351,24.351,0,0,0,.5-11.58l-.031.038A24.086,24.086,0,0,1-188.84-2178.817Z" fill="url(#u)"/><path d="M-189.87-2172.921c-.056.19-.117.381-.178.572Q-189.955-2172.635-189.87-2172.921Z" fill="url(#v)"/><path d="M-201.475-2180.426v-3.624a36.86,36.86,0,0,1-1.371,5.558A2.057,2.057,0,0,0-201.475-2180.426Z" fill="url(#w)"/></g></svg>