<svg xmlns="http://www.w3.org/2000/svg" width="67.636" height="55" viewBox="0 0 67.636 55"><g transform="translate(0 -47.826)"><path d="M50.014,48.722A16.929,16.929,0,0,0,33.819,60.129,16.927,16.927,0,0,0,17.625,48.722,17.144,17.144,0,0,0,.9,66.218c.158,9.078,4.088,16.363,11.822,22.97a100.554,100.554,0,0,0,19.1,12.275,4.467,4.467,0,0,0,3.993,0,100.554,100.554,0,0,0,19.1-12.275C62.652,82.58,66.582,75.3,66.74,66.218a17.144,17.144,0,0,0-16.726-17.5Z" fill="#f23d3d"/><path d="M52.842,48.99A31.134,31.134,0,0,1,14.491,90.646a104.861,104.861,0,0,0,17.332,10.818,4.465,4.465,0,0,0,3.992,0,100.5,100.5,0,0,0,19.1-12.275c7.9-6.746,11.827-14.2,11.827-23.544A16.928,16.928,0,0,0,52.842,48.99Z" fill="#d92b2b"/><path d="M33.818,102.826a5.36,5.36,0,0,1-2.4-.562,100.4,100.4,0,0,1-19.284-12.4C4.019,82.932.164,75.422,0,66.234A18.1,18.1,0,0,1,5.169,53.219a17.531,17.531,0,0,1,12.445-5.392h.2a17.793,17.793,0,0,1,16,9.972,17.8,17.8,0,0,1,16-9.972h.2a17.529,17.529,0,0,1,12.444,5.392,18.093,18.093,0,0,1,5.166,13.015c-.16,9.188-4.016,16.7-12.135,23.634a100.334,100.334,0,0,1-19.283,12.4A5.368,5.368,0,0,1,33.818,102.826Zm-16-53.211h-.181a15.755,15.755,0,0,0-11.181,4.85A16.321,16.321,0,0,0,1.792,66.2C1.943,74.841,5.6,81.929,13.3,88.508a100.56,100.56,0,0,0,18.921,12.155,3.592,3.592,0,0,0,3.193,0A100.592,100.592,0,0,0,54.336,88.508c7.7-6.579,11.358-13.667,11.508-22.306a16.321,16.321,0,0,0-4.66-11.736A15.752,15.752,0,0,0,50,49.616a16.019,16.019,0,0,0-15.339,10.8l-.846,2.456-.846-2.455A16.009,16.009,0,0,0,17.814,49.615Z"/><path d="M4.472,66.717A1.074,1.074,0,0,1,3.4,65.643,14.42,14.42,0,0,1,23.225,52.278a1.074,1.074,0,0,1-.806,1.991A12.271,12.271,0,0,0,5.545,65.643,1.074,1.074,0,0,1,4.472,66.717Z" fill="#fff"/><circle cx="1.074" cy="1.074" r="1.074" transform="translate(25.388 54.404)" fill="#fff"/><path d="M33.819,86.69A6.409,6.409,0,0,1,27.2,80.072a.716.716,0,1,1,1.431,0,4.971,4.971,0,0,0,5.187,5.187,4.971,4.971,0,0,0,5.187-5.187.716.716,0,0,1,1.432,0,6.409,6.409,0,0,1-6.619,6.618Z"/><path d="M39.02,69.943a27.648,27.648,0,0,0-10.4,0l-.335-1.757a29.4,29.4,0,0,1,11.071,0Z"/><circle cx="6.71" cy="6.71" r="6.71" transform="translate(15.478 62.354)"/><path d="M17.491,69.78a.715.715,0,0,1-.716-.715,5.419,5.419,0,0,1,5.413-5.413.716.716,0,1,1,0,1.431,3.987,3.987,0,0,0-3.982,3.982A.714.714,0,0,1,17.491,69.78Z" fill="#fff"/><circle cx="6.71" cy="6.71" r="6.71" transform="translate(38.74 62.354)"/><path d="M40.888,69.78a.716.716,0,0,1-.716-.715,5.285,5.285,0,0,1,5.279-5.279.716.716,0,1,1,0,1.431A3.852,3.852,0,0,0,41.6,69.065a.716.716,0,0,1-.716.715Z" fill="#fff"/><ellipse cx="3.221" cy="1.789" rx="3.221" ry="1.789" transform="translate(14.493 77.117)" fill="#f66"/><ellipse cx="3.221" cy="1.789" rx="3.221" ry="1.789" transform="translate(46.703 77.117)" fill="#f66"/></g></svg>